<svg width="50" height="58" viewBox="0 0 50 58" fill="none" xmlns="http://www.w3.org/2000/svg">
<g id="Frame">
<path id="Vector" d="M39.6 42.8919C39.3 42.93 38.9833 42.9965 38.65 43.0916C38.3167 43.1866 38.0167 43.2912 37.75 43.4053C37.4167 43.5574 37.1 43.7285 36.8 43.9186C36.7333 43.5003 36.75 43.0821 36.85 42.6638C36.9167 42.2836 37.05 41.8843 37.25 41.466C37.45 41.0477 37.7833 40.6295 38.25 40.2112C39.0833 39.5648 40.075 39.1655 41.225 39.0134C42.375 38.8613 43.45 39.0134 44.45 39.4697C45.45 39.926 46.2333 40.715 46.8 41.8368C47.3667 42.9585 47.4667 44.489 47.1 46.4282C46.8 47.9873 46.1833 49.4037 45.25 50.6775C44.3167 51.9513 43.075 52.9305 41.525 53.6149C39.975 54.2994 38.15 54.6226 36.05 54.5845C33.95 54.5465 31.6 54.0142 29 52.9875C27.2 52.265 25.7833 51.3619 24.75 50.2782C23.7167 49.1945 22.9417 48.0823 22.425 46.9416C21.9083 45.8008 21.6 44.7266 21.5 43.719C21.4 42.7113 21.3833 41.9223 21.45 41.3519C21.5167 40.7816 21.725 40.0781 22.075 39.2416C22.425 38.405 22.7833 37.6065 23.15 36.846C23.5833 35.9334 24.0667 35.0018 24.6 34.0512C24.8667 33.5569 25.1 33.0816 25.3 32.6253C25.4667 32.207 25.6 31.7887 25.7 31.3705C25.8 30.9522 25.8 30.5529 25.7 30.1727C25.3667 29.184 24.95 28.4236 24.45 27.8912C23.95 27.3589 23.4667 26.9596 23 26.6934C22.4333 26.4273 21.85 26.2752 21.25 26.2371C20.4167 26.1991 19.65 26.085 18.95 25.8949C18.35 25.7048 17.7583 25.4576 17.175 25.1534C16.5917 24.8492 16.1667 24.3739 15.9 23.7275C15.6 23.0811 15.475 22.4156 15.525 21.7312C15.575 21.0468 15.6917 20.3718 15.875 19.7064C16.0583 19.041 16.25 18.404 16.45 17.7957C16.65 17.1873 16.75 16.6549 16.75 16.1986C16.75 14.9818 16.1833 14.1263 15.05 13.6319C13.5833 13.2137 12.4833 13.0426 11.75 13.1186C11.0167 13.1947 10.5 13.3563 10.2 13.6034C9.9 13.8506 9.75 14.0787 9.75 14.2879C9.75 14.497 9.75 14.5255 9.75 14.3734C9.75 14.9058 9.80833 15.5902 9.925 16.4268C10.0417 17.2633 9.98333 18.0618 9.75 18.8223C9.58333 19.2786 9.35833 19.7064 9.075 20.1056C8.79167 20.5049 8.55 20.8757 8.35 21.2179C8.08333 21.7122 7.85833 22.14 7.675 22.5012C7.49167 22.8624 7.41667 23.1001 7.45 23.2142C7.51667 23.3663 7.675 23.4708 7.925 23.5279C8.175 23.5849 8.36667 23.6515 8.5 23.7275C8.66667 23.8416 8.775 24.0222 8.825 24.2694C8.875 24.5165 9 24.7352 9.2 24.9253C9.53333 25.3055 9.73333 25.6287 9.8 25.8949C9.83333 26.047 9.83333 26.1801 9.8 26.2942C9.8 26.5984 9.81667 26.9596 9.85 27.3779C9.88333 27.7201 9.925 28.1098 9.975 28.5471C10.025 28.9844 10.1 29.4122 10.2 29.8305C10.4 30.8191 10.6333 31.5131 10.9 31.9123C11.1667 32.3116 11.4917 32.5587 11.875 32.6538C12.2583 32.7489 12.7167 32.7584 13.25 32.6823C13.7833 32.6063 14.4333 32.5682 15.2 32.5682C15.7667 32.6063 16.35 32.6253 16.95 32.6253C17.55 32.6253 18.0833 32.7774 18.55 33.0816C19.0167 33.3858 19.3833 33.804 19.65 34.3364C19.9167 34.8687 20.1333 35.4011 20.3 35.9334C20.4333 36.5798 20.5333 37.2453 20.6 37.9297C20.7 38.8043 20.75 39.6789 20.75 40.5534C20.75 41.3139 20.7167 42.141 20.65 43.0345C20.5833 43.9281 20.4167 44.8122 20.15 45.6868C19.5833 47.4739 18.75 48.8048 17.65 49.6794C16.55 50.5539 15.3667 51.1243 14.1 51.3905C12.7667 51.6947 11.5 51.7327 10.3 51.5045C9.1 51.2764 8.01667 50.8961 7.05 50.3638C6.08333 49.8315 5.29167 49.185 4.675 48.4245C4.05833 47.664 3.68333 46.9036 3.55 46.1431C3.45 45.5347 3.44167 44.9358 3.525 44.3464C3.60833 43.757 3.73333 43.1866 3.9 42.6353C4.06667 42.0839 4.26667 41.5611 4.5 41.0668C4.73333 40.5724 4.93333 40.0971 5.1 39.6408C5.4 38.9184 5.58333 38.2815 5.65 37.7301C5.71667 37.1787 5.71667 36.7129 5.65 36.3327C5.58333 35.9144 5.45 35.5342 5.25 35.1919C4.95 34.8117 4.63333 34.4124 4.3 33.9942C4.03333 33.6139 3.75 33.2052 3.45 32.7679C3.15 32.3306 2.9 31.8458 2.7 31.3134C2.03333 29.7544 1.68333 28.3095 1.65 26.9786C1.65 26.4082 1.65833 25.7143 1.675 24.8968C1.69167 24.0792 1.81667 23.3092 2.05 22.5868C2.25 21.9784 2.74167 21.1703 3.525 20.1627C4.30833 19.155 5.18333 17.8527 6.15 16.2556C6.35 15.7994 6.525 15.324 6.675 14.8297C6.825 14.3354 6.94167 13.8791 7.025 13.4608C7.10833 13.0426 7.16667 12.6813 7.2 12.3771C7.23333 12.0729 7.25 11.8638 7.25 11.7497C7.25 11.3695 7.23333 10.9512 7.2 10.4949C7.16667 10.0386 7.13333 9.5633 7.1 9.06898C7.1 8.84083 7.08333 8.46059 7.05 7.92824C7.01667 7.39589 7.05833 6.80651 7.175 6.16009C7.29167 5.51367 7.5 4.85775 7.8 4.19231C8.1 3.52688 8.56667 2.92799 9.2 2.39565C9.7 1.97738 10.2917 1.68268 10.975 1.51157C11.6583 1.34046 12.3 1.23589 12.9 1.19787C13.6 1.15984 14.3333 1.17886 15.1 1.25491C15.7333 0.988734 16.4 0.779598 17.1 0.627499C17.7 0.475401 18.4 0.342314 19.2 0.22824C20 0.114166 20.8333 0.0571289 21.7 0.0571289C24.6 0.133178 27.0333 0.637005 29 1.56861C30.9667 2.50022 32.5833 3.64096 33.85 4.99083C35.1167 6.34071 36.0833 7.80466 36.75 9.38268C37.4167 10.9607 37.9 12.4247 38.2 13.7745C38.5 15.1244 38.675 16.2652 38.725 17.1968C38.775 18.1284 38.8 18.6132 38.8 18.6512C38.8333 19.2976 39.0333 19.887 39.4 20.4194C39.7667 20.9517 40.1917 21.4936 40.675 22.0449C41.1583 22.5963 41.6583 23.1571 42.175 23.7275C42.6917 24.2979 43.1333 24.9253 43.5 25.6097C44.2 27.0547 44.5833 28.3475 44.65 29.4882C44.7167 30.629 44.5833 31.6366 44.25 32.5112C43.9167 33.3858 43.45 34.1368 42.85 34.7642C42.25 35.3916 41.6417 35.9144 41.025 36.3327C40.4083 36.751 39.8417 37.0742 39.325 37.3023C38.8083 37.5305 38.4833 37.6826 38.35 37.7586C37.25 38.329 36.4083 38.9564 35.825 39.6408C35.2417 40.3253 34.85 41.0097 34.65 41.6942C34.45 42.3786 34.4083 43.044 34.525 43.6905C34.6417 44.3369 34.8833 44.8882 35.25 45.3445C35.4833 45.6868 35.7833 45.9719 36.15 46.2001C36.5167 46.4282 36.8917 46.5994 37.275 46.7134C37.6583 46.8275 38.025 46.894 38.375 46.9131C38.725 46.9321 39.0167 46.9036 39.25 46.8275C39.7833 46.7134 40.225 46.4378 40.575 46.0005C40.925 45.5632 41.1333 45.0974 41.2 44.6031C41.2667 44.1087 41.175 43.6905 40.925 43.3482C40.675 43.006 40.2333 42.8539 39.6 42.8919Z" fill="#95999A"/>
</g>
</svg>
