<svg width="57" height="57" viewBox="0 0 57 57" fill="none" xmlns="http://www.w3.org/2000/svg">
<g id="Frame">
<path id="Vector" d="M40.9008 12.1147C40.8123 11.9237 39.9646 10.2104 37.4358 8.806C35.7859 7.89032 34.0185 7.40549 32.9242 7.17114V4.57831C32.9242 4.02835 32.4772 3.58081 31.9267 3.58081C30.5022 3.58081 29.3255 4.20592 28.5022 5.39156C27.6762 4.20425 26.5011 3.58081 25.0778 3.58081C24.5278 3.58081 24.0803 4.02779 24.0803 4.57831V7.17114C22.9831 7.40716 21.2125 7.89311 19.5687 8.806C16.9859 10.241 16.1381 12.0406 16.1053 12.1119C15.9433 12.4548 15.9917 12.8539 16.2372 13.1606C16.2506 13.1767 17.5893 14.8828 18.805 17.4979C18.9297 17.7852 19.6995 19.5742 20.0079 20.6908L20.0057 20.6914C20.4404 22.2088 20.6614 23.6933 20.6614 25.105C20.6614 28.5422 20.0925 30.0385 19.5425 31.4852C19.0499 32.7805 18.54 34.1203 18.54 36.5863C18.54 41.3611 20.4582 51.4597 20.6803 52.6108C20.7699 53.079 21.1813 53.4191 21.6583 53.4191H35.335C35.812 53.4191 36.2234 53.079 36.323 52.5618C36.6787 50.7021 38.4533 41.1908 38.4533 36.5863C38.4533 34.1203 37.9434 32.7805 37.4508 31.4852C36.9008 30.0385 36.3319 28.5422 36.3319 25.105C36.3319 21.8564 37.5315 18.7821 38.5374 16.7749C39.4658 14.9229 40.4015 13.6248 40.7478 13.165C40.9988 12.8828 41.0595 12.4743 40.9008 12.1147ZM19.8108 17.4968C19.7674 17.3938 19.7312 17.3104 19.7023 17.2424L19.7062 17.2397C19.6856 17.1951 19.665 17.1528 19.6444 17.1088C19.64 17.0983 19.6344 17.086 19.6327 17.0821L19.6322 17.0827C18.4176 14.4787 17.0171 12.6351 16.9542 12.5756C16.9375 12.5533 16.933 12.5283 16.9453 12.5026C16.9525 12.4865 17.699 10.904 20.019 9.61535C21.8181 8.61618 23.8437 8.15528 24.6314 8.00332C24.7369 7.98298 24.8321 7.92652 24.9006 7.84363C24.969 7.76074 25.0065 7.65661 25.0065 7.5491V4.57831C25.0065 4.54046 25.0399 4.50706 25.0778 4.50706C26.3196 4.50706 27.2865 5.09432 27.9539 6.25603C27.9907 6.31837 28.0241 6.38294 28.0575 6.4464L28.0931 6.51486C28.1323 6.58927 28.1911 6.65156 28.2631 6.69501C28.3351 6.73847 28.4176 6.76144 28.5017 6.76146H28.5022C28.6737 6.76146 28.8307 6.66738 28.9108 6.51598L28.9514 6.43916C28.9832 6.37849 29.0155 6.31614 29.0539 6.25157C29.7185 5.09376 30.6854 4.50706 31.9272 4.50706C31.9651 4.50706 31.9985 4.54046 31.9985 4.57831V7.21011C31.0862 7.51181 28.4928 8.46422 25.8537 10.2822L25.5042 9.87753C25.3372 9.68382 25.0449 9.66322 24.8512 9.82966C24.6575 9.99665 24.6364 10.2889 24.8034 10.4826L25.0995 10.8255C24.7238 11.1088 24.3508 11.41 23.984 11.7306L23.6311 11.3226C23.4646 11.1294 23.1718 11.1077 22.9781 11.2747C22.7844 11.4417 22.7633 11.7339 22.9303 11.9276L23.3004 12.3562C21.8665 13.744 20.6018 15.4456 19.8108 17.4968ZM37.7107 16.3596C36.6598 18.4559 35.4068 21.675 35.4068 25.1044C35.4068 28.7115 36.0063 30.289 36.5858 31.8136C37.0706 33.0872 37.5276 34.2896 37.5276 36.5857C37.5276 41.1067 35.7664 50.5418 35.4046 52.4355C35.3979 52.4694 35.3695 52.4928 35.335 52.4928H21.6589C21.6244 52.4928 21.596 52.4694 21.5865 52.4199C21.3694 51.2933 19.4663 41.2748 19.4663 36.5857C19.4663 34.2896 19.9238 33.0872 20.4081 31.8136C20.9876 30.2884 21.5871 28.7115 21.5871 25.1044C21.5871 23.6644 21.3667 22.1559 20.9425 20.6207L20.9475 20.6196C20.8184 20.103 20.5812 19.4334 20.3441 18.8144C21.0093 16.4938 22.3569 14.5978 23.9261 13.0788L24.2389 13.4406C24.2823 13.491 24.3362 13.5315 24.3967 13.5592C24.4572 13.5869 24.523 13.6011 24.5896 13.6009C24.6965 13.6009 24.8045 13.5636 24.8919 13.4885C25.0856 13.3215 25.1067 13.0292 24.9397 12.8355L24.6074 12.4509C24.9742 12.1314 25.3489 11.8319 25.7263 11.5497L26.112 11.9961C26.1554 12.0466 26.2093 12.087 26.2698 12.1147C26.3303 12.1424 26.3961 12.1566 26.4627 12.1564C26.5696 12.1564 26.6776 12.1191 26.765 12.044C26.9587 11.877 26.9798 11.5847 26.8128 11.391L26.4839 11.0103C29.242 9.12829 31.9361 8.20427 32.4872 8.02726C33.3333 8.19536 35.2526 8.65236 36.9877 9.61591C39.2988 10.8995 39.993 12.5288 40.023 12.5939C39.733 12.9702 38.7138 14.3579 37.7107 16.3596Z" fill="#95999A"/>
</g>
</svg>
