<svg width="56" height="56" viewBox="0 0 56 56" fill="none" xmlns="http://www.w3.org/2000/svg">
<g id="Frame">
<path id="Vector" d="M21.6322 52.1171L10.1642 45.4967L34.2267 3.81714L45.6947 10.4382L21.6322 52.1171ZM11.3591 45.1768L21.3123 50.9228L44.4998 10.7581L34.5466 5.01206L11.3591 45.1768Z" fill="#95999A"/>
<path id="Vector_2" d="M14.1424 39.4817L14.5799 38.7239L17.6318 40.486L17.1943 41.2438L14.1424 39.4817ZM16.0804 36.1243L16.5179 35.3666L22.9121 39.0582L22.4746 39.816L16.0804 36.1243ZM18.0189 32.7677L18.4564 32.01L21.6532 33.8557L21.2157 34.6134L18.0189 32.7677ZM19.9562 29.4106L20.3937 28.6529L23.5905 30.4986L23.153 31.2563L19.9562 29.4106ZM21.8945 26.0538L22.332 25.296L25.5288 27.1417L25.0913 27.8995L21.8945 26.0538ZM23.8326 22.6973L24.2701 21.9395L30.6643 25.6312L30.2268 26.389L23.8326 22.6973ZM26.1162 19.3398L26.5537 18.582L29.4602 20.2601L29.0227 21.0179L26.1162 19.3398ZM28.0535 15.9827L28.491 15.2249L31.3975 16.903L30.96 17.6608L28.0535 15.9827ZM29.9918 12.6259L30.4293 11.8681L33.3358 13.5462L32.8983 14.3039L29.9918 12.6259ZM31.9302 9.26947L32.3677 8.51172L38.7618 12.2034L38.3243 12.9611L31.9302 9.26947Z" fill="#95999A"/>
</g>
</svg>
