<svg width="51" height="58" viewBox="0 0 51 58" fill="none" xmlns="http://www.w3.org/2000/svg">
<g id="Group 26608">
<path id="Vector" d="M12.4806 4.35391L0.475819 29.1942C0.475819 29.1942 -0.825496 33.7586 0.875977 35.4918C0.875977 35.4918 5.7447 42.3579 16.4821 42.8389C16.4821 42.8389 21.6302 42.4975 22.8847 41.0896C22.8847 41.0896 29.681 39.1304 30.0875 46.6874C30.0875 46.6874 28.831 52.7051 32.8886 55.7839C32.8886 55.7839 35.3648 57.2883 37.2904 57.5332C37.2904 57.5332 38.1335 57.7029 38.891 56.1338L50.8958 30.9436C51.0379 30.6174 51.0346 30.2564 50.8863 29.9323C50.738 29.6082 50.4557 29.3447 50.0954 29.1942C47.5532 28.3275 45.2388 27.0182 43.2927 25.3457C43.2927 25.3457 42.9818 24.9833 43.6929 23.9463L45.2935 20.4476C45.2935 20.4476 46.366 17.4119 44.4932 15.1997C44.4932 15.1997 43.0819 12.73 37.6905 11.7011C37.6905 11.7011 38.0563 10.2886 37.6905 9.252C37.6905 9.252 35.6417 3.32251 26.4861 0.85527C26.4861 0.85527 16.1552 -2.59124 12.4806 4.35391Z" fill="#95999A"/>
<path id="Vector_2" d="M14.014 31.2336C18.2741 32.6551 21.0752 35.3018 20.2705 37.1463C19.4657 38.9908 15.3597 39.3319 11.0996 37.91C6.83955 36.4882 4.03844 33.8418 4.84316 31.9973C5.64788 30.1529 9.7535 29.8117 14.014 31.2336Z" fill="white"/>
<path id="Vector_3" d="M24.0852 40.74L37.6358 11.1523C37.8082 11.1062 39.4953 11.802 39.4861 11.8171L25.8059 41.4992C25.3305 41.0986 24.9772 41.1651 24.0852 40.74Z" fill="white"/>
</g>
</svg>
