<svg width="46" height="55" viewBox="0 0 46 55" fill="none" xmlns="http://www.w3.org/2000/svg">
<g id="Group 26609">
<path id="Vector" d="M23.7254 5.61049C24.0314 5.28835 24.4609 5.08433 24.9334 5.08433C25.8569 5.08433 26.6085 5.83062 26.6085 6.75946C26.6085 7.68293 25.8623 8.43459 24.9334 8.43459C24.4556 8.43459 24.0261 8.23057 23.7254 7.90843V10.9634C27.4676 8.75673 32.101 6.15813 32.101 6.15813L32.2138 0.0159912L23.7254 2.84546V5.61049ZM40.4176 19.9726C41.8297 17.8787 44.9222 14.0237 45.8833 12.8211C46.0443 12.617 46.0014 12.3325 45.792 12.1875C45.137 11.7365 43.7571 10.8077 42.5008 10.1151C40.7773 9.16477 37.9532 8.03191 36.858 7.62387C36.1385 7.35005 34.2916 6.79704 33.1211 6.4588C31.3333 7.61313 16.6866 17.0948 15.9618 17.884C15.7524 18.1149 15.4303 18.4532 15.0652 18.9525C15.1242 18.9471 15.1833 18.931 15.2424 18.931C15.9564 18.931 16.5309 19.5055 16.5309 20.2196C16.5309 20.9336 15.9564 21.5081 15.2424 21.5081C14.6786 21.5081 14.2061 21.1484 14.0343 20.6491C13.6961 21.3363 13.3686 22.1524 13.0894 23.1403C12.1606 26.4691 11.4035 30.4099 11.4035 30.4099L11.3982 30.3992C12.1391 33.3682 12.4505 36.4715 12.3538 38.2862C12.2411 40.3104 11.8062 45.1264 11.2156 47.1881C10.625 49.2498 9.74451 51.4886 9.74451 51.4886C9.74451 51.4886 15.586 54.9839 22.9845 54.9839C30.383 54.9839 36.2244 51.4886 36.2244 51.4886C36.2244 51.4886 35.3385 49.2444 34.7533 47.1881C34.1627 45.1264 33.7278 40.3104 33.6151 38.2862C33.5023 36.2621 33.9104 32.6381 34.8446 29.3791C35.2956 27.8167 38.7318 22.4745 40.4176 19.9726Z" fill="#95999A"/>
<path id="Vector_2" d="M10.5928 28.1336C10.5928 28.1336 10.523 26.1846 11.076 23.4786C11.6182 20.8264 11.8437 20.5579 13.1001 18.5714C12.9014 18.6949 12.6706 18.77 12.4182 18.77C11.7041 18.77 11.1297 18.1956 11.1297 17.4815C11.1297 16.7674 11.7041 16.1929 12.4182 16.1929C13.1323 16.1929 13.7068 16.7674 13.7068 17.4815C13.7068 17.5889 13.696 17.6855 13.6692 17.7821C15.1242 16.0372 17.6476 14.6789 20.7885 12.7192C21.2395 12.44 21.7549 12.1232 22.3187 11.785V7.83874C22.0126 8.25216 21.5294 8.52598 20.971 8.52598C20.0476 8.52598 19.2959 7.77969 19.2959 6.85085C19.2959 5.92738 20.0422 5.17572 20.971 5.17572C21.5294 5.17572 22.0126 5.44954 22.3187 5.86295V2.83483L13.7712 0L13.884 6.15288C13.884 6.15288 10.2169 7.19983 9.12701 7.61325C8.04247 8.02666 5.21301 9.15952 3.48419 10.1045C2.22784 10.7971 0.84801 11.7259 0.192992 12.1769C-0.0217684 12.3219 -0.0647204 12.6172 0.101719 12.8104C1.06814 14.0077 4.15532 17.868 5.56736 19.962C6.93646 22.0022 9.45452 25.9054 10.5928 28.1336Z" fill="#95999A"/>
</g>
</svg>
