<svg width="66" height="208" viewBox="0 0 66 208" fill="none" xmlns="http://www.w3.org/2000/svg">
<g id="&#230;&#140;&#137;&#233;&#146;&#174;">
<path id="Vector 15" d="M0 11.223L0 192.662L0 194.906C0 194.906 5.96671 196.405 8.74172 198.647C12.1832 201.429 13.9868 208 13.9868 208H51.5762C51.5762 208 53.031 201.42 56.3841 198.647C59.3509 196.195 66 194.906 66 194.906L66 11.9712C66 11.9712 59.3721 10.9535 56.3841 8.60431C53.1792 6.08455 51.5762 -1.52588e-05 51.5762 -1.52588e-05H13.9868C13.9868 -1.52588e-05 12.2031 6.24055 8.74172 8.60431C5.91443 10.535 0 11.223 0 11.223Z" fill="#59BC9F" fill-opacity="0.56"/>
</g>
</svg>
