<svg width="40" height="27" viewBox="0 0 40 27" fill="none" xmlns="http://www.w3.org/2000/svg">
<path id="Vector" d="M26.7895 0C28.4158 0.00282039 30.0033 0.498497 31.3431 1.42188C32.683 2.34526 33.7126 3.65313 34.2966 5.17358L34.375 5.3882L34.5877 5.46757C37.5929 6.63381 39.6361 9.52107 39.7299 12.7825L39.7323 13.0157C39.7323 16.3727 37.6641 19.3693 34.5877 20.5639L34.375 20.6417L34.2966 20.8571C33.7268 22.3405 32.7326 23.6225 31.4386 24.5424C30.1446 25.4623 28.6083 25.9792 27.0224 26.0283L26.7895 26.0315C25.441 26.0299 24.1145 25.6888 22.932 25.0395C21.7495 24.3902 20.7489 23.4536 20.0222 22.3157L19.8661 22.0598L19.8435 22.1003C19.1519 23.2616 18.1799 24.23 17.0168 24.9164C15.8537 25.6028 14.537 25.9851 13.1878 26.0283L12.9428 26.0315C9.6036 26.0315 6.6242 23.9509 5.43649 20.8571L5.35644 20.6417L5.14461 20.5631C2.13934 19.3977 0.0962139 16.5112 0.00323407 13.2506L0 13.0157C0 9.65875 2.06739 6.66216 5.1438 5.46757L5.35564 5.3882L5.43568 5.17358C6.00561 3.69031 6.99986 2.4085 8.29385 1.48877C9.58785 0.569033 11.124 0.0522744 12.7099 0.00323955L12.942 0C14.3334 0.00177279 15.7005 0.364886 16.91 1.05389C18.1194 1.7429 19.1299 2.73426 19.8427 3.93121L19.8653 3.97089L19.8896 3.93121C20.5811 2.77008 21.5531 1.80179 22.716 1.1154C23.8789 0.429011 25.1954 0.046564 26.5445 0.00323955L26.7895 0ZM26.7895 2.25554C23.5918 2.25554 20.9892 4.87311 20.9892 8.0908C20.9895 8.23884 20.9607 8.38549 20.9043 8.52236C20.848 8.65922 20.7653 8.78361 20.6609 8.8884C20.5565 8.99319 20.4325 9.07633 20.296 9.13306C20.1595 9.18978 20.0131 9.21898 19.8653 9.21898C19.7176 9.21888 19.5714 9.1896 19.4349 9.13282C19.2985 9.07605 19.1746 8.9929 19.0703 8.88811C18.966 8.78333 18.8834 8.65898 18.8271 8.52217C18.7708 8.38536 18.742 8.23878 18.7423 8.0908C18.7423 4.87311 16.1397 2.25554 12.942 2.25554C11.6632 2.25828 10.421 2.68349 9.40803 3.46525C8.39502 4.24701 7.66775 5.34167 7.33894 6.57955C7.2882 6.77066 7.18811 6.94501 7.04873 7.08505C6.90935 7.22509 6.7356 7.32589 6.54497 7.37729C4.0143 8.0576 2.24607 10.3771 2.24607 13.0157C2.24607 15.6536 4.0143 17.9723 6.54578 18.6526C6.93306 18.7579 7.23544 19.0624 7.33974 19.4519C7.6684 20.69 8.39561 21.7848 9.40864 22.5667C10.4217 23.3487 11.6639 23.774 12.9428 23.7768C16.1397 23.7768 18.7423 21.1584 18.7423 17.9399C18.7423 16.1824 17.3217 14.7538 15.5769 14.7538C14.7442 14.7538 14.065 15.4365 14.065 16.2764C14.065 16.5712 14.3043 16.8117 14.5962 16.8117C15.2172 16.8117 15.7201 17.3171 15.7201 17.9399C15.7203 18.0879 15.6914 18.2344 15.635 18.3712C15.5786 18.508 15.4958 18.6322 15.3915 18.737C15.2871 18.8417 15.1631 18.9247 15.0267 18.9814C14.8902 19.0381 14.7439 19.0672 14.5962 19.0672C13.8587 19.0653 13.152 18.7704 12.6314 18.2471C12.1107 17.7239 11.8185 17.0151 11.8189 16.2764C11.8189 14.1933 13.5039 12.4982 15.5769 12.4982C17.2506 12.4982 18.7949 13.2733 19.8063 14.5473L19.8653 14.625L19.9252 14.5473C20.4088 13.9364 21.0184 13.4374 21.7124 13.0845C22.4063 12.7315 23.1682 12.5329 23.9459 12.5023L24.1545 12.4982C26.2276 12.4982 27.9133 14.1925 27.9133 16.2764C27.9133 17.8152 26.6682 19.0672 25.1361 19.0672C24.9884 19.0672 24.8421 19.0381 24.7056 18.9814C24.5692 18.9247 24.4452 18.8417 24.3408 18.737C24.2364 18.6322 24.1537 18.508 24.0973 18.3712C24.0409 18.2344 24.012 18.0879 24.0122 17.9399C24.0122 17.3171 24.5151 16.8117 25.1361 16.8117C25.277 16.8108 25.4119 16.7542 25.5113 16.654C25.6107 16.5539 25.6665 16.4184 25.6665 16.2772C25.6665 15.4365 24.9873 14.7538 24.1545 14.7538C22.4097 14.7538 20.9892 16.1832 20.9892 17.9399C20.9892 21.1584 23.5926 23.776 26.7895 23.776C28.0684 23.7732 29.3106 23.3478 30.3236 22.5659C31.3367 21.784 32.0639 20.6892 32.3925 19.4511C32.496 19.0624 32.7992 18.7579 33.1873 18.6526C35.718 17.9723 37.4862 15.6536 37.4862 13.0157C37.4862 10.3771 35.718 8.05841 33.1881 7.3781C32.9971 7.32688 32.823 7.22607 32.6833 7.08586C32.5436 6.94565 32.4433 6.771 32.3925 6.57955C32.064 5.34145 31.3368 4.24654 30.3238 3.46459C29.3107 2.68265 28.0684 2.25738 26.7895 2.25473V2.25554Z" fill="#95999A"/>
</svg>
