<svg width="44" height="22" viewBox="0 0 44 22" fill="none" xmlns="http://www.w3.org/2000/svg">
<path id="Vector" d="M39.9533 21.3394C40.185 21.5481 40.4558 21.709 40.75 21.8125C41.0442 21.9161 41.356 21.9603 41.6674 21.9427C41.9788 21.9251 42.2837 21.846 42.5643 21.7099C42.845 21.5738 43.0959 21.3835 43.3026 21.1499C43.5093 20.9164 43.6677 20.6442 43.7686 20.349C43.8696 20.0539 43.911 19.7417 43.8906 19.4305C43.8703 19.1192 43.7884 18.8151 43.6498 18.5357C43.5113 18.2563 43.3187 18.0071 43.0833 17.8024L23.505 0.587307C23.0716 0.208662 22.5156 0 21.94 0C21.3645 0 20.8085 0.208662 20.375 0.587307L0.81236 17.8024C0.576952 18.0071 0.384408 18.2563 0.245843 18.5357C0.107279 18.8151 0.0254398 19.1192 0.0050512 19.4305C-0.0153374 19.7417 0.0261282 20.0539 0.127054 20.349C0.22798 20.6442 0.386367 20.9164 0.593069 21.1499C0.799772 21.3835 1.0507 21.5738 1.33135 21.7099C1.61201 21.846 1.91684 21.9251 2.22825 21.9427C2.53965 21.9603 2.85146 21.9161 3.14567 21.8125C3.43988 21.709 3.71066 21.5481 3.94238 21.3394L21.94 5.48579L39.9533 21.3394Z" fill="#333333" fill-opacity="0.46"/>
</svg>
