<svg width="55" height="55" viewBox="0 0 55 55" fill="none" xmlns="http://www.w3.org/2000/svg">
<path id="Vector" d="M27.5 0C12.3123 0 0 12.3121 0 27.5C0 42.6878 12.3122 55 27.5 55C42.6879 55 55 42.6879 55 27.5C55 12.3121 42.6879 0 27.5 0ZM13.6109 9.01145C15.1024 9.01145 16.3115 10.2206 16.3115 11.7121C16.3115 13.2036 15.1024 14.4127 13.6109 14.4127C12.1194 14.4127 10.9103 13.2036 10.9103 11.7121C10.9103 10.2206 12.1194 9.01145 13.6109 9.01145ZM16.4819 44.7654C16.5233 44.8401 16.5455 44.9184 16.5455 44.9988C16.5455 45.5253 15.6065 45.9522 14.4482 45.9522C13.29 45.9522 12.3509 45.5253 12.3509 44.9988C12.3509 44.9448 12.3614 44.892 12.3803 44.8405C11.553 44.2935 11.0164 43.4153 11.0164 42.4249C11.0164 42.015 11.1084 41.6243 11.2748 41.2682C11.5227 40.351 13.2654 37.6967 13.6358 36.0033C14.0061 34.3099 12.9048 32.959 12.9048 32.959H12.9052C12.6185 32.8667 12.4452 32.7471 12.4452 32.6164C12.4452 32.3242 13.3099 32.0872 14.3767 32.0872C15.4435 32.0872 16.3083 32.3242 16.3083 32.6164C16.3083 32.7333 16.1697 32.8412 15.9356 32.9288H15.9359C15.2943 34.4157 15.3378 35.5633 15.4086 35.9504C15.664 37.3443 16.6954 39.6907 17.2491 40.8657C17.5963 41.5625 17.7143 42.0697 17.7371 42.4249C17.7979 43.3693 17.2473 44.2151 16.482 44.7654H16.4819ZM26.8167 43.9129C26.889 44.0436 26.9279 44.1804 26.9279 44.3213C26.9279 45.2421 25.2856 45.9885 23.2598 45.9885C21.2339 45.9885 19.5917 45.2421 19.5917 44.3213C19.5917 44.2269 19.6099 44.1344 19.643 44.0443C18.1959 43.0876 17.2575 41.5516 17.2575 39.8195C17.2575 39.1025 17.4185 38.4192 17.7097 37.7964C18.1432 36.1924 21.1912 31.5498 21.8391 28.5881C22.4869 25.6263 20.5603 23.2637 20.5603 23.2637H20.5611C20.0598 23.1023 19.7565 22.8931 19.7565 22.6645C19.7565 22.1534 21.269 21.739 23.1348 21.739C25.0006 21.739 26.5131 22.1534 26.5131 22.6645C26.5131 22.8689 26.2708 23.0577 25.8614 23.2108H25.8619C24.7396 25.8114 24.8158 27.8187 24.9398 28.4955C25.3863 30.9334 27.1904 35.0373 28.1588 37.0924C28.7661 38.3112 28.9723 39.1983 29.0122 39.8195C29.1182 41.4711 28.1552 42.9503 26.8167 43.913V43.9129ZM41.233 43.2728C41.3269 43.4423 41.3772 43.6195 41.3772 43.8023C41.3772 44.9961 39.248 45.9639 36.6214 45.9639C33.9949 45.9639 31.8657 44.9961 31.8657 43.8023C31.8657 43.6798 31.8892 43.56 31.9322 43.4431C30.056 42.2027 28.8393 40.2112 28.8393 37.9656C28.8393 37.0359 29.048 36.15 29.4255 35.3427C29.9875 33.2629 33.9393 27.2438 34.7793 23.4038C35.6193 19.5638 33.1214 16.5007 33.1214 16.5007H33.1224C32.4724 16.2913 32.0793 16.0201 32.0793 15.7237C32.0793 15.061 34.0403 14.5238 36.4593 14.5238C38.8783 14.5238 40.8393 15.061 40.8393 15.7238C40.8393 15.9887 40.5252 16.2336 39.9943 16.4321H39.9949C38.5399 19.8038 38.6385 22.4062 38.7993 23.2838C39.3783 26.4446 41.7173 31.7654 42.9727 34.4299C43.7603 36.0102 44.0276 37.1602 44.0793 37.9656C44.2172 40.1068 42.9685 42.0248 41.233 43.2728Z" fill="#95999A"/>
</svg>
