<svg width="44" height="44" viewBox="0 0 44 44" fill="none" xmlns="http://www.w3.org/2000/svg">
<g id="Frame">
<path id="Vector" d="M40.0056 11.7021C40.2373 11.4933 40.5081 11.3325 40.8023 11.229C41.0965 11.1254 41.4083 11.0812 41.7197 11.0988C42.0311 11.1164 42.3359 11.1955 42.6166 11.3316C42.8972 11.4676 43.1482 11.658 43.3549 11.8915C43.5616 12.1251 43.72 12.3973 43.8209 12.6924C43.9218 12.9876 43.9633 13.2997 43.9429 13.611C43.9225 13.9222 43.8407 14.2263 43.7021 14.5058C43.5635 14.7852 43.371 15.0344 43.1356 15.239L23.5573 32.4542C23.1238 32.8328 22.5678 33.0415 21.9923 33.0415C21.4167 33.0415 20.8607 32.8328 20.4273 32.4542L0.864606 15.239C0.629198 15.0344 0.436654 14.7852 0.298089 14.5058C0.159525 14.2263 0.0776859 13.9222 0.0572973 13.611C0.0369087 13.2997 0.0783743 12.9876 0.1793 12.6924C0.280226 12.3973 0.438613 12.1251 0.645315 11.8915C0.852018 11.658 1.10294 11.4676 1.3836 11.3316C1.66426 11.1955 1.96909 11.1164 2.28049 11.0988C2.5919 11.0812 2.9037 11.1254 3.19791 11.229C3.49213 11.3325 3.76291 11.4933 3.99463 11.7021L21.9923 27.5557L40.0056 11.7021Z" fill="#333333" fill-opacity="0.46"/>
</g>
</svg>
