<svg width="112" height="404" viewBox="0 0 112 404" fill="none" xmlns="http://www.w3.org/2000/svg">
<path id="Vector 15" d="M2 23.5827L2 372.504L2 376.82C2 376.82 11.7637 379.701 16.3046 384.014C21.9361 389.364 24.8874 402 24.8874 402H86.3973C86.3973 402 88.778 389.346 94.2649 384.014C99.1196 379.297 110 376.82 110 376.82L110 25.0216C110 25.0216 99.1544 23.0645 94.2649 18.5468C89.0205 13.701 86.3973 2 86.3973 2H24.8874C24.8874 2 21.9688 14.0011 16.3046 18.5468C11.6782 22.2596 2 23.5827 2 23.5827Z" fill="#59BC9F" fill-opacity="0.56" stroke="#6F4F4F" stroke-width="3"/>
</svg>
