<svg width="375" height="597" viewBox="0 0 375 597" fill="none" xmlns="http://www.w3.org/2000/svg">
<path id="Vector 18" d="M113.676 4.20844C164.633 0.238442 186.847 26.7051 186.847 26.7051C186.847 26.7051 243.03 -12.6777 280.923 4.20844C318.817 21.0946 322.735 59.7883 322.735 59.7883C322.735 59.7883 344.671 54.1364 356.707 59.7883C365.552 63.9414 375 65.081 375 76.9917C375 88.9023 356.707 246.378 356.707 246.378C356.707 246.378 375 268.875 375 303.281C375 337.688 356.707 350.921 356.707 350.921V495.165C356.707 495.165 371.08 520.308 356.707 533.541C342.335 546.775 322.735 533.541 322.735 533.541C322.735 533.541 296.142 587.557 263.937 595.738C233.548 603.458 186.847 573.241 186.847 573.241C186.847 573.241 169.861 599.708 113.676 595.738C57.4913 591.768 57.4913 533.541 57.4913 533.541C57.4913 533.541 28.7456 542.805 18.2927 533.541C7.83972 524.278 0 495.165 0 495.165L18.2927 350.921C18.2927 350.921 0.000153161 344.305 0 303.281C-0.000152755 262.258 18.2927 246.378 18.2927 246.378C18.2927 246.378 -0.00222513 94.195 0 76.9917C0.00222553 59.7883 18.2927 59.7883 18.2927 59.7883H57.4913C57.4913 59.7883 62.7191 8.17843 113.676 4.20844Z" fill="url(#paint0_linear_435_72)"/>
<defs>
<linearGradient id="paint0_linear_435_72" x1="187.5" y1="0" x2="187.5" y2="597" gradientUnits="userSpaceOnUse">
<stop stop-color="#DEC6D5"/>
<stop offset="1" stop-color="#E8F2EF"/>
</linearGradient>
</defs>
</svg>
