<svg width="22" height="44" viewBox="0 0 22 44" fill="none" xmlns="http://www.w3.org/2000/svg">
<path id="Vector" d="M21.3394 39.9533C21.5481 40.185 21.709 40.4558 21.8125 40.75C21.9161 41.0442 21.9603 41.356 21.9427 41.6674C21.9251 41.9788 21.846 42.2837 21.7099 42.5643C21.5738 42.845 21.3835 43.0959 21.1499 43.3026C20.9164 43.5093 20.6442 43.6677 20.349 43.7686C20.0539 43.8696 19.7417 43.911 19.4305 43.8906C19.1192 43.8703 18.8151 43.7884 18.5357 43.6498C18.2563 43.5113 18.0071 43.3187 17.8024 43.0833L0.587307 23.505C0.208662 23.0716 0 22.5156 0 21.94C0 21.3645 0.208662 20.8085 0.587307 20.375L17.8024 0.81236C18.0071 0.576952 18.2563 0.384407 18.5357 0.245843C18.8151 0.107279 19.1192 0.0254398 19.4305 0.0050512C19.7417 -0.0153374 20.0539 0.0261282 20.349 0.127054C20.6442 0.22798 20.9164 0.386367 21.1499 0.593069C21.3835 0.799772 21.5738 1.0507 21.7099 1.33135C21.846 1.61201 21.9251 1.91684 21.9427 2.22825C21.9603 2.53965 21.9161 2.85146 21.8125 3.14567C21.709 3.43988 21.5481 3.71066 21.3394 3.94238L5.48579 21.94L21.3394 39.9533Z" fill="#333333"/>
</svg>
