<svg width="158" height="850" viewBox="0 0 158 850" fill="none" xmlns="http://www.w3.org/2000/svg">
<path id="Vector 15" d="M-4.33206 0C-19.3276 1.11158e-05 -32.5589 6.47132 -32.5589 6.47132L-34.6172 17.3549L-37.2634 30.0034C-37.2634 30.0034 -40.8958 33.7121 -41.6739 36.7689C-42.2689 39.1066 -41.6739 42.9461 -41.6739 42.9461C-41.6739 42.9461 -44.7118 57.2829 -50.4948 64.125C-57.6254 72.5614 -65.4342 72.7887 -75.4873 77.3617C-88.2846 83.183 -95.9531 85.3017 -109.301 89.7161C-115.473 91.7573 -119.44 91.6616 -125.178 94.7167C-127.962 96.1984 -129.595 97.0217 -131.941 99.1289C-136.089 102.855 -139.586 111.189 -139.586 111.189C-139.586 111.189 -159.462 139.428 -158.992 144.134C-158.522 148.841 -149.282 151.166 -142.82 155.312C-131.094 162.835 -114.535 167.666 -111.653 172.667C-108.771 177.667 -107.491 192.642 -104.302 205.318C-98.8937 226.818 -92.8238 238.068 -88.1306 259.736C-84.9764 274.298 -82.394 282.493 -81.956 297.387C-81.6446 307.973 -81.6364 314.065 -83.7201 324.449C-85.2074 331.86 -86.8722 335.824 -89.3067 342.98C-94.4951 358.23 -100.029 365.767 -105.478 380.926C-109.83 393.029 -112.268 399.872 -115.181 412.4C-118.21 425.423 -120.474 446.227 -120.474 446.227C-120.474 446.227 -121.25 463.613 -121.356 474.76C-121.589 499.244 -120.556 512.978 -119.004 537.414C-117.329 563.777 -114.243 578.396 -112.829 604.775C-110.831 642.055 -112.829 700.374 -112.829 700.374L-115.181 785.678L-116.946 837.154L-98.7157 844.508L-64.3142 847.449L-31.3828 849.508H9.19331C25.7282 849.508 35.0357 850.614 51.5336 849.508C69.5832 848.299 97.4023 843.037 97.4023 843.037L103.283 838.331L112.986 834.507L117.102 836.272L115.632 809.21L114.456 783.619L112.986 753.321L111.222 717.435L110.046 665.37L111.222 620.659L117.102 537.414L118.278 483.29C118.278 483.29 119.285 452.875 117.102 433.579C115.342 418.02 114.17 409.185 109.752 394.163C104.9 377.666 92.6978 353.57 92.6978 353.57C92.6978 353.57 83.6952 334.036 81.5247 320.625C79.4325 307.698 80.3181 300.131 81.5247 287.092C83.4986 265.758 94.756 233.85 94.756 233.85C94.756 233.85 108.575 175.902 112.986 172.078C117.396 168.254 138.272 158.547 138.272 158.547C138.272 158.547 158.855 145.605 157.972 142.663C157.09 139.722 138.272 107.071 138.272 107.071C138.272 107.071 135.332 100.894 130.334 96.4816C125.335 92.0692 104.275 88.5838 87.9933 82.3623C71.2744 75.9739 45.9471 64.125 45.9471 64.125C45.9471 64.125 38.3023 39.122 37.7142 35.5923C37.1262 32.0625 35.199 33.0479 33.8918 31.18C28.2941 23.1813 30.0694 6.47132 30.0694 6.47132C30.0694 6.47132 10.6635 -1.11157e-05 -4.33206 0Z" fill="#E9CFD3"/>
</svg>
