<svg width="556" height="716" viewBox="0 0 556 716" fill="none" xmlns="http://www.w3.org/2000/svg">
<path id="Vector 14" d="M269 0.463021C242.699 0.463041 220 6 220 6L213.519 22.6649C213.519 22.6649 207.148 29.1747 205.783 34.5403C204.74 38.6437 205.783 45.383 205.783 45.383C205.783 45.383 200.455 70.5484 190.312 82.5582C177.805 97.3667 164.109 97.7656 146.477 105.793C124.031 116.011 110.581 119.73 87.1697 127.478C76.3442 131.061 69.3865 130.893 59.3212 136.256C54.4392 138.857 51.575 140.302 47.4599 144C40.1841 150.54 34.0514 165.17 34.0514 165.17C34.0514 165.17 -0.809964 214.736 0.0143929 222.998C0.83875 231.259 17.0454 235.341 28.3785 242.618C48.9448 255.823 77.9887 264.304 83.044 273.081C88.0993 281.858 90.3443 308.144 95.9368 330.393C105.423 368.132 116.069 387.879 124.301 425.912C129.833 451.474 134.363 465.858 135.131 492.001C135.677 510.583 135.691 521.277 132.037 539.503C129.428 552.512 126.508 559.471 122.238 572.031C113.138 598.8 103.433 612.029 93.8739 638.637C86.2416 659.882 81.966 671.893 76.8554 693.883C71.5429 716.743 67.5726 753.26 67.5726 753.26C67.5726 753.26 66.2113 783.776 66.0255 803.344C65.6175 846.32 67.4283 870.428 70.1512 913.32C73.0888 959.595 78.5018 985.256 80.9811 1031.56C84.4852 1097 80.9811 1199.36 80.9811 1199.36L76.8554 1349.1L73.7612 1439.45L105.735 1452.36L166.074 1457.52L223.833 1461.14H295.002C324.003 1461.14 340.328 1463.08 369.264 1461.14C400.922 1459.01 449.715 1449.78 449.715 1449.78L460.029 1441.52L477.048 1434.8L484.268 1437.9L481.689 1390.4L479.626 1345.48L477.048 1292.3L473.954 1229.31L471.891 1137.92L473.954 1059.44L484.268 913.32L486.331 818.317C486.331 818.317 488.096 764.928 484.268 731.058C481.181 703.747 479.124 688.239 471.375 661.871C462.865 632.915 441.464 590.619 441.464 590.619C441.464 590.619 425.674 556.332 421.867 532.791C418.197 510.1 419.75 496.819 421.867 473.93C425.329 436.483 445.074 380.476 445.074 380.476C445.074 380.476 469.312 278.761 477.048 272.048C484.783 265.336 521.399 248.298 521.399 248.298C521.399 248.298 557.499 225.579 555.952 220.416C554.405 215.253 521.399 157.941 521.399 157.941C521.399 157.941 516.242 147.098 507.475 139.354C498.708 131.609 461.77 125.491 433.212 114.57C403.888 103.357 359.466 82.5582 359.466 82.5582C359.466 82.5582 346.057 38.6707 345.026 32.475C343.994 26.2792 338.321 24.7301 338.321 24.7301L333.5 6C333.5 6 295.301 0.463002 269 0.463021Z" fill="url(#paint0_linear_235_413)"/>
<defs>
<linearGradient id="paint0_linear_235_413" x1="278" y1="-30" x2="278" y2="1462" gradientUnits="userSpaceOnUse">
<stop offset="0.0625" stop-color="#B4E2D5"/>
<stop offset="0.504808" stop-color="#FAC8D1"/>
</linearGradient>
</defs>
</svg>
