<svg width="157" height="580" viewBox="0 0 157 580" fill="none" xmlns="http://www.w3.org/2000/svg">
<path id="Vector 13" d="M0 31.295L0 537.23L0 543.489C0 543.489 14.1935 547.667 20.7947 553.921C28.9812 561.677 33.2715 580 33.2715 580H122.689C122.689 580 126.149 561.652 134.126 553.921C141.183 547.081 157 543.489 157 543.489L157 33.3813C157 33.3813 141.234 30.5435 134.126 23.9928C126.502 16.9666 122.689 0 122.689 0H33.2715C33.2715 0 29.0287 17.4016 20.7947 23.9928C14.0692 29.3765 0 31.295 0 31.295Z" fill="#59BC9F" fill-opacity="0.56"/>
</svg>
