<svg width="458" height="842" viewBox="0 0 458 842" fill="none" xmlns="http://www.w3.org/2000/svg">
<path id="&#231;&#129;&#175;&#231;&#172;&#188;" d="M220.763 53.3364V-18H235.59V53.3364C235.59 53.3364 256.82 63.6041 258.655 74.4731C260.469 85.2213 243.827 99.573 243.827 99.573H332.791C332.791 99.573 345.554 105.192 349.266 111.462C353.405 118.453 349.266 131.278 349.266 131.278C349.266 131.278 400.01 143.554 423.403 161.662C441.12 175.377 458 203.935 458 203.935V498.528C458 498.528 444.554 534.735 423.403 550.049C400.432 566.681 349.266 572.507 349.266 572.507C349.266 572.507 348.972 586.118 344.324 593.644C340.667 599.564 331.144 606.854 331.144 606.854H235.59V626.67C235.59 626.67 243.757 629.752 247.122 633.275C250.465 636.774 252.065 643.843 252.065 643.843V842H202.64V643.843C202.64 643.843 204.24 636.774 207.583 633.275C210.948 629.752 219.115 626.67 219.115 626.67V606.854H133.446C133.446 606.854 117.237 601.003 112.029 593.644C106.908 586.409 108.734 572.507 108.734 572.507C108.734 572.507 61.8335 565.11 39.5396 550.049C17.008 534.827 0 498.528 0 498.528V203.935C0 203.935 13.3762 175.388 29.6547 161.662C53.2536 141.764 108.734 131.278 108.734 131.278C108.734 131.278 106.24 121.284 108.734 115.426C112.411 106.788 130.151 99.573 130.151 99.573H214.173C214.173 99.573 196.036 85.4696 197.698 74.4731C199.343 63.5845 220.763 53.3364 220.763 53.3364Z" fill="url(#paint0_linear_154_1164)" fill-opacity="0.82"/>
<defs>
<linearGradient id="paint0_linear_154_1164" x1="229" y1="-18" x2="229" y2="842" gradientUnits="userSpaceOnUse">
<stop stop-color="#E4B1CC"/>
<stop offset="0.754808" stop-color="#EBF3F1"/>
</linearGradient>
</defs>
</svg>
