<svg width="458" height="856" viewBox="0 0 458 856" fill="none" xmlns="http://www.w3.org/2000/svg">
<path id="&#231;&#129;&#175;&#231;&#172;&#188;" d="M220.763 67.3364V-4H235.59V67.3364C235.59 67.3364 256.82 77.6041 258.655 88.4731C260.469 99.2213 243.827 113.573 243.827 113.573H332.791C332.791 113.573 345.554 119.192 349.266 125.462C353.405 132.453 349.266 145.278 349.266 145.278C349.266 145.278 400.01 157.554 423.403 175.662C441.12 189.377 458 217.935 458 217.935V512.528C458 512.528 444.554 548.735 423.403 564.049C400.432 580.681 349.266 586.507 349.266 586.507C349.266 586.507 348.972 600.118 344.324 607.644C340.667 613.564 331.144 620.854 331.144 620.854H235.59V640.67C235.59 640.67 243.757 643.752 247.122 647.275C250.465 650.774 252.065 657.843 252.065 657.843V856H202.64V657.843C202.64 657.843 204.24 650.774 207.583 647.275C210.948 643.752 219.115 640.67 219.115 640.67V620.854H133.446C133.446 620.854 117.237 615.003 112.029 607.644C106.908 600.409 108.734 586.507 108.734 586.507C108.734 586.507 61.8335 579.11 39.5396 564.049C17.008 548.827 0 512.528 0 512.528V217.935C0 217.935 13.3762 189.388 29.6547 175.662C53.2536 155.764 108.734 145.278 108.734 145.278C108.734 145.278 106.24 135.284 108.734 129.426C112.411 120.788 130.151 113.573 130.151 113.573H214.173C214.173 113.573 196.036 99.4696 197.698 88.4731C199.343 77.5845 220.763 67.3364 220.763 67.3364Z" fill="url(#paint0_linear_443_209)"/>
<defs>
<linearGradient id="paint0_linear_443_209" x1="229" y1="-4" x2="229" y2="856" gradientUnits="userSpaceOnUse">
<stop stop-color="#E4B1CC" stop-opacity="0.84"/>
<stop offset="0.754808" stop-color="#EBF3F1"/>
</linearGradient>
</defs>
</svg>
